<svg xmlns="http://www.w3.org/2000/svg" xmlns:xlink="http://www.w3.org/1999/xlink" viewBox="0 0 800 800">
  <defs>
    <style>
      .cls-1 {
        fill: #4989f5;
      }

      .cls-2 {
        fill: url(#linear-gradient);
      }

      .cls-3, .cls-7 {
        fill: #3c4ba6;
      }

      .cls-4 {
        fill: #7babf7;
      }

      .cls-5 {
        fill: #3f51b5;
      }

      .cls-6 {
        fill: #709be0;
      }

      .cls-6, .cls-7 {
        fill-rule: evenodd;
      }

      .cls-8 {
        fill: #fff;
      }
    </style>
    <linearGradient id="linear-gradient" x1="-1778.21" y1="940.95" x2="-1777.92" y2="940.95" gradientTransform="matrix(2185.08, 0, 0, -1647.96, 3885605.22, 1551123.5)" gradientUnits="userSpaceOnUse">
      <stop offset="0.03" stop-color="#4079d8"/>
      <stop offset="1" stop-color="#4989f5"/>
    </linearGradient>
  </defs>
  <g id="Layer_3" data-name="Layer 3">
    <g>
      <g>
        <rect class="cls-1" x="68.17" y="239.27" width="645.56" height="482.71" rx="25.57"/>
        <path class="cls-2" d="M680.7,235.65H100.49c-18,0-32,139.09-32,157.07L386.27,722H680.7a32.77,32.77,0,0,0,32.68-32.68v-421A32.77,32.77,0,0,0,680.7,235.65Z"/>
        <path class="cls-3" d="M215.58,320.11H400V78H243.19Z"/>
        <path class="cls-4" d="M584.47,320.11H400V78H556.85ZM713.73,123.92l.23.82C713.9,124.45,713.79,124.18,713.73,123.92Z"/>
        <path class="cls-5" d="M714,124.74l-.23-.83a58.34,58.34,0,0,0-57-45.89H556.85l27.6,242.09H768.89Z"/>
        <path class="cls-4" d="M86.31,123.92l-.23.82C86.14,124.45,86.25,124.18,86.31,123.92Z"/>
        <path class="cls-4" d="M86.08,124.74l.22-.83a58.34,58.34,0,0,1,57-45.89h99.93L215.55,320.11H31.11Z"/>
      </g>
      <path class="cls-6" d="M215.89,320.05a92.17,92.17,0,0,1-184.34,0Z"/>
      <path class="cls-7" d="M400.23,320.05a92.17,92.17,0,0,1-184.34,0Z"/>
      <path class="cls-6" d="M584.57,320.05a92.17,92.17,0,0,1-184.34,0Z"/>
      <path class="cls-7" d="M768.89,320.05a92.17,92.17,0,1,1-184.34,0Z"/>
      <path class="cls-8" d="M676.72,569.76c-.32-4.39-.86-8.39-1.63-13.51H574.54c0,14.06,0,29.41,0,43.47h58.24a50.65,50.65,0,0,1-21.32,32.52s0-.24,0-.25a61.09,61.09,0,0,1-23.58,9.2,69.24,69.24,0,0,1-25.51-.11,63.76,63.76,0,0,1-23.79-10.31,66.45,66.45,0,0,1-23.39-29.89c-.36-.93-.69-1.88-1-2.83v-.11l.09-.07a64.49,64.49,0,0,1,0-41.49,66.76,66.76,0,0,1,15.47-25.17,62.84,62.84,0,0,1,63.32-16.49,57.62,57.62,0,0,1,23,13.56l19.65-19.65c3.47-3.5,7.07-6.89,10.4-10.51a103.93,103.93,0,0,0-34.42-21.32,108.23,108.23,0,0,0-72-.63q-1.23.42-2.43.87a107.58,107.58,0,0,0-58.12,52.09A105.85,105.85,0,0,0,469.74,556a107,107,0,0,0,77.12,124.4c17.81,4.77,36.75,4.65,54.7.57a97,97,0,0,0,43.78-22.75c12.92-11.89,22.19-27.74,27-44.56a124.08,124.08,0,0,0,4.34-43.92Z"/>
    </g>
  </g>
</svg>
