<svg xmlns="http://www.w3.org/2000/svg" viewBox="0 0 800 800">
  <defs>
    <style>
      .cls-1 {
        fill: #48454b;
        stroke: #fff;
        stroke-width: 18px;
      }

      .cls-2 {
        fill: #fff;
      }
    </style>
  </defs>
  <g id="Layer_2" data-name="Layer 2">
    <g>
      <path class="cls-1" d="M400,736.32C214.52,736.32,63.68,585.48,63.68,400S214.52,63.68,400,63.68,736.32,214.52,736.32,400,585.48,736.32,400,736.32"/>
      <g>
        <g>
          <path class="cls-2" d="M500.49,272.92a160.71,160.71,0,0,1,23-1.41c52.16,0,64.45,29.61,64.45,55.79,0,23.36-10.88,47.93-54,47.93-8.26,0-23.77-.4-33.23-1V272.92ZM440.88,488.41c0,27-9.87,38.47-52.16,38.47V544.8H555.88c71.29,0,111.37-39.27,111.37-85.79,0-37.06-26.39-67.07-68.28-76.73v-.81c35.85-8.26,53.17-25.57,53.17-53.37,0-14.09-5.64-30.21-16.51-41.48-23.36-24.57-64.85-32.43-118.82-32.43-18.53,0-44.11,1.82-70.09,3.23-23,1.4-43.7,3.22-54.37,3.62V279h10.87c32.83,0,37.46,5,37.46,40.08V488.41ZM500.49,394c6.45-.4,23.37-1.41,31.62-1.41,56.19,0,68.27,40.68,68.27,68.07,0,30.61-12.08,63.44-60.41,63.44-27.59,0-39.27-7.86-39.27-41.09V394Z"/>
          <path class="cls-2" d="M236.27,487.2V413.69h58.2a42.6,42.6,0,0,1,22.76-25.17h-81V285.81h83.37c19.54,0,25.58,9.27,27.19,39.27l15.51-3.82V260.64H144.23V278h5.64c18.93,0,26.79,8.66,26.79,37.86V500.7c0,19.53-6.85,26-25.58,26h-6.85V544.6H273.32V526.67h-8.25c-23.16.21-28.8-6.64-28.8-39.47"/>
        </g>
        <path class="cls-2" d="M351.26,364.56c0-5.85,3.63-9.47,9.47-9.47,6.85,0,11.28,4.83,11.28,12.28,0,5.84-2.22,10.48-7.45,15.31-9.27-7.05-13.3-11.08-13.3-18.12M428,436.85c-3,2.82-6.84,4.44-9.66,4.44-7.66,0-11.89-9.47-19.54-22.56,10.07-13.7,16.11-29.4,20.54-33.83,2.42-2.42,5-3,10.48-3h2.82v-6.64H398.19v6.64h2c5.84,0,8.06.81,8.06,3,0,4-7.05,18.12-13.5,27.38-9.66-13.09-15.1-18.72-24-25.17,10.27-4.83,15.71-11.88,15.71-20.14,0-11.07-10.07-18.12-25.38-18.12-17.12,0-28.8,8.46-28.8,21.14,0,8.06,3.83,14.7,12.89,23-19.33,7.86-28,17.12-28,30.41,0,18.13,14.1,29.61,30.41,29.61,12.08,0,26-6.05,35.24-15.91C390.53,448.74,396,453,406.65,453a38.5,38.5,0,0,0,24.77-9.67Zm-89.41-20.54c0-7.85,4-14.3,12.28-19.33,10.67,9.46,21.75,20.94,28.2,33-7.66,7.05-13.5,10.07-19.94,10.07-11.08,0-20.54-11.08-20.54-23.77"/>
      </g>
    </g>
  </g>
</svg>
