<svg id="Container" xmlns="http://www.w3.org/2000/svg" viewBox="0 0 1117 1117">
  <defs>
    <style>
      .cls-1 {
        fill: #fff;
      }
    </style>
  </defs>
  <g id="Circle6">
    <path class="cls-1" d="M559,1034.54A475.66,475.66,0,0,1,373.9,120.83,475.66,475.66,0,0,1,744.1,997.17,472.5,472.5,0,0,1,559,1034.54Zm0-940.08C302.85,94.46,94.46,302.85,94.46,559S302.85,1023.54,559,1023.54,1023.54,815.15,1023.54,559,815.15,94.46,559,94.46Z"/>
  </g>
  <g id="Circle5">
    <path class="cls-1" d="M559,1065A506.17,506.17,0,0,1,362,92.74,506.16,506.16,0,0,1,756,1025.26,502.84,502.84,0,0,1,559,1065ZM559,64C286,64,64,286,64,559S286,1054,559,1054,1054,832,1054,559,832,64,559,64Z"/>
  </g>
  <g id="Storkes1">
    <path class="cls-1" d="M559,395.4h-.16a5.5,5.5,0,0,1-5.34-5.66c2-69.66,2.24-140.3.8-209.95a5.5,5.5,0,1,1,11-.23c1.44,69.84,1.17,140.66-.81,210.5A5.49,5.49,0,0,1,559,395.4Z"/>
    <path class="cls-1" d="M389.9,564.5h-.16c-69.66-2-140.29-2.24-209.95-.8a5.5,5.5,0,1,1-.23-11c69.84-1.44,140.66-1.17,210.5.81a5.5,5.5,0,0,1-.16,11Z"/>
    <path class="cls-1" d="M558.19,943.83a5.51,5.51,0,0,1-5.5-5.39c-1.44-69.84-1.17-140.66.81-210.5a5.5,5.5,0,1,1,11,.32c-2,69.66-2.24,140.3-.8,210a5.51,5.51,0,0,1-5.38,5.62Z"/>
    <path class="cls-1" d="M849.71,566.22c-40.66,0-81.38-.57-121.77-1.72a5.5,5.5,0,1,1,.32-11c69.66,2,140.3,2.24,210,.8h.12a5.5,5.5,0,0,1,.11,11Q894.27,566.22,849.71,566.22Z"/>
  </g>
  <g id="Storks2">
    <path class="cls-1" d="M430,816a5.43,5.43,0,0,1-2.81-.78,5.5,5.5,0,0,1-1.91-7.54,909.66,909.66,0,0,0,52.27-101.62,5.5,5.5,0,0,1,10.08,4.41,923.17,923.17,0,0,1-52.9,102.85A5.5,5.5,0,0,1,430,816Z"/>
    <path class="cls-1" d="M810.49,693.52a5.49,5.49,0,0,1-2.82-.78,913,913,0,0,0-101.62-52.26,5.5,5.5,0,0,1,4.41-10.08,922.35,922.35,0,0,1,102.85,52.9,5.5,5.5,0,0,1-2.82,10.22Z"/>
    <path class="cls-1" d="M725.59,544.44a5.5,5.5,0,0,1-.93-10.92L785.17,523c24.31-4.23,49.44-8.59,70.53-21.5a5.5,5.5,0,1,1,5.74,9.38c-22.88,14-50.24,18.76-74.39,23l-60.51,10.51A5.15,5.15,0,0,1,725.59,544.44Z"/>
    <path class="cls-1" d="M506.21,864.07a5.5,5.5,0,0,1-4.69-8.37c12.91-21.09,17.27-46.22,21.5-70.53l10.5-60.51a5.5,5.5,0,1,1,10.84,1.88l-10.51,60.51c-4.19,24.15-8.94,51.51-23,74.39A5.48,5.48,0,0,1,506.21,864.07Z"/>
    <path class="cls-1" d="M635.44,415.25a5.34,5.34,0,0,1-2.2-.47,5.49,5.49,0,0,1-2.84-7.24,923.17,923.17,0,0,1,52.9-102.85,5.5,5.5,0,1,1,9.44,5.64A911.27,911.27,0,0,0,640.48,412,5.51,5.51,0,0,1,635.44,415.25Z"/>
    <path class="cls-1" d="M579.06,397.9a5,5,0,0,1-.94-.08,5.5,5.5,0,0,1-4.48-6.36L584.15,331c4.19-24.15,8.94-51.51,23-74.39a5.5,5.5,0,1,1,9.38,5.74c-12.91,21.09-17.27,46.22-21.5,70.53l-10.5,60.51A5.5,5.5,0,0,1,579.06,397.9Z"/>
    <path class="cls-1" d="M482.56,415.25a5.51,5.51,0,0,1-5-3.3,909.66,909.66,0,0,0-52.27-101.62,5.5,5.5,0,0,1,9.45-5.64,923.17,923.17,0,0,1,52.9,102.85,5.49,5.49,0,0,1-2.84,7.24A5.34,5.34,0,0,1,482.56,415.25Z"/>
    <path class="cls-1" d="M688,816a5.5,5.5,0,0,1-4.73-2.68,923.17,923.17,0,0,1-52.9-102.85,5.5,5.5,0,0,1,10.08-4.41,911.27,911.27,0,0,0,52.26,101.62,5.49,5.49,0,0,1-1.9,7.54A5.43,5.43,0,0,1,688,816Z"/>
    <path class="cls-1" d="M307.51,693.52a5.5,5.5,0,0,1-2.82-10.22,922.35,922.35,0,0,1,102.85-52.9A5.5,5.5,0,0,1,412,640.48a913,913,0,0,0-101.62,52.26A5.49,5.49,0,0,1,307.51,693.52Z"/>
    <path class="cls-1" d="M538.94,397.9a5.5,5.5,0,0,1-5.42-4.56L523,332.83c-4.23-24.31-8.59-49.44-21.5-70.53a5.5,5.5,0,1,1,9.38-5.74c14,22.88,18.76,50.24,23,74.39l10.51,60.51a5.5,5.5,0,0,1-4.48,6.36A5,5,0,0,1,538.94,397.9Z"/>
    <path class="cls-1" d="M259.43,617.29a5.5,5.5,0,0,1-2.87-10.19c22.88-14,50.24-18.76,74.39-23l60.51-10.51a5.5,5.5,0,1,1,1.88,10.84L332.83,595c-24.31,4.23-49.44,8.59-70.53,21.5A5.48,5.48,0,0,1,259.43,617.29Z"/>
    <path class="cls-1" d="M409.74,488.06a5.57,5.57,0,0,1-2.2-.46,923.17,923.17,0,0,1-102.85-52.9,5.5,5.5,0,0,1,5.64-9.45A909.66,909.66,0,0,0,412,477.52a5.5,5.5,0,0,1-2.21,10.54Z"/>
    <path class="cls-1" d="M708.26,488.06a5.5,5.5,0,0,1-2.21-10.54,909.66,909.66,0,0,0,101.62-52.27,5.5,5.5,0,0,1,5.64,9.45,923.17,923.17,0,0,1-102.85,52.9A5.57,5.57,0,0,1,708.26,488.06Z"/>
    <path class="cls-1" d="M392.41,544.44a5.15,5.15,0,0,1-1-.08L331,533.85c-24.15-4.19-51.51-8.94-74.39-23a5.5,5.5,0,1,1,5.74-9.38c21.09,12.91,46.22,17.27,70.53,21.5l60.51,10.5a5.5,5.5,0,0,1-.93,10.92Z"/>
    <path class="cls-1" d="M611.79,864.07a5.48,5.48,0,0,1-4.69-2.63c-14-22.88-18.76-50.24-23-74.39l-10.51-60.51a5.5,5.5,0,1,1,10.84-1.88L595,785.17c4.23,24.31,8.59,49.44,21.5,70.53a5.5,5.5,0,0,1-4.69,8.37Z"/>
    <path class="cls-1" d="M858.57,617.29a5.48,5.48,0,0,1-2.87-.81c-21.09-12.91-46.22-17.27-70.53-21.5l-60.51-10.5a5.5,5.5,0,1,1,1.88-10.84l60.51,10.51c24.15,4.19,51.51,8.94,74.39,23a5.5,5.5,0,0,1-2.87,10.19Z"/>
  </g>
  <g id="Leaves1">
    <g id="Leaf1E">
      <path class="cls-1" d="M404,891.64c-19,0-37.08-8.89-46.48-23.57-7.26-11.32-9.89-26.47-7.42-42.65,4.26-27.84,21.59-51.94,38-71.83,16.71-20.29,41.93-46.77,64.26-67.46a5.5,5.5,0,0,1,7.48,8.07c-22,20.38-46.82,46.44-63.25,66.38C380.39,780.27,364.86,802,361,827.08c-2.07,13.53,0,26,5.8,35.06,8.85,13.81,27.81,21.09,46.12,17.69,16.32-3,32.11-13.67,44.44-30,11.93-15.75,19.4-34.63,25.46-51.09,9.4-25.48,18.38-54.41,25.31-81.45A5.5,5.5,0,0,1,518.81,720c-7,27.39-16.13,56.7-25.64,82.52-6.34,17.2-14.18,37-27,53.93C452.16,875,434,887.12,415,890.65A60.16,60.16,0,0,1,404,891.64Z"/>
    </g>
    <g id="Leaf1G">
      <path class="cls-1" d="M718.68,519a5.5,5.5,0,0,1-1.37-10.83c27-6.93,56-15.91,81.45-25.31,16.46-6.06,35.34-13.53,51.1-25.46,16.3-12.33,26.94-28.12,30-44.44,3.39-18.31-3.88-37.27-17.69-46.12-9.07-5.81-21.52-7.87-35.06-5.8-25.13,3.84-46.81,19.37-66.5,35.58-19.94,16.43-46,41.25-66.38,63.25a5.5,5.5,0,0,1-8.07-7.48c20.69-22.33,47.17-47.55,67.46-64.26,19.89-16.38,44-33.71,71.83-38,16.17-2.47,31.33.16,42.66,7.42,17.47,11.19,26.75,34.79,22.57,57.39-3.53,19-15.66,37.21-34.16,51.21-17,12.83-36.73,20.67-53.93,27-25.82,9.51-55.13,18.62-82.52,25.64A5.28,5.28,0,0,1,718.68,519Z"/>
    </g>
    <g id="Leaf1F">
      <path class="cls-1" d="M714,891.64a60.07,60.07,0,0,1-10.91-1c-19-3.53-37.21-15.66-51.21-34.16-12.83-17-20.67-36.73-27-53.93-9.51-25.82-18.62-55.13-25.64-82.52a5.5,5.5,0,0,1,10.66-2.73c6.93,27,15.91,56,25.31,81.45,6.06,16.46,13.53,35.34,25.46,51.1,12.33,16.3,28.12,26.94,44.44,30,18.31,3.4,37.27-3.88,46.12-17.69,5.81-9.07,7.87-21.53,5.8-35.06-3.84-25.13-19.37-46.81-35.58-66.5-16.43-19.94-41.25-46-63.25-66.38a5.5,5.5,0,0,1,7.48-8.07c22.33,20.69,47.55,47.17,64.26,67.46,16.38,19.9,33.71,44,38,71.83,2.47,16.18-.16,31.33-7.42,42.66C751.05,882.75,732.91,891.64,714,891.64Z"/>
    </g>
    <g id="Leaf1E-2" data-name="Leaf1E">
      <path class="cls-1" d="M661.89,433.34a5.51,5.51,0,0,1-3.74-9.54c22-20.38,46.83-46.44,63.25-66.38,16.21-19.69,31.74-41.37,35.58-66.5,2.07-13.53,0-26-5.8-35.06-8.85-13.81-27.81-21.08-46.12-17.69-16.32,3-32.11,13.67-44.44,30-11.93,15.75-19.4,34.63-25.46,51.09-9.4,25.48-18.38,54.41-25.31,81.45A5.5,5.5,0,1,1,599.19,398c7-27.39,16.13-56.69,25.64-82.51,6.34-17.2,14.18-37,27-53.93,14-18.5,32.19-30.63,51.21-34.16,22.59-4.19,46.2,5.09,57.39,22.57,7.26,11.33,9.89,26.48,7.42,42.67-4.26,27.83-21.59,51.92-38,71.82-16.71,20.29-41.93,46.77-64.26,67.46A5.49,5.49,0,0,1,661.89,433.34Z"/>
    </g>
    <g id="Leaf1D">
      <path class="cls-1" d="M280.92,768.76c-11.71,0-22.44-2.84-31-8.32-17.47-11.19-26.76-34.79-22.57-57.39,3.53-19,15.66-37.21,34.16-51.21,17-12.83,36.73-20.67,53.93-27,25.82-9.51,55.12-18.62,82.51-25.64a5.5,5.5,0,1,1,2.74,10.66c-27,6.93-56,15.91-81.45,25.31-16.46,6.06-35.34,13.53-51.09,25.46-16.31,12.33-26.95,28.12-30,44.44-3.4,18.31,3.88,37.27,17.69,46.12,9.07,5.81,21.53,7.87,35.06,5.8,25.13-3.84,46.81-19.37,66.5-35.58,19.94-16.42,46-41.25,66.39-63.25a5.5,5.5,0,1,1,8.06,7.48c-20.69,22.33-47.17,47.55-67.46,64.26-19.9,16.38-44,33.71-71.82,38A78.14,78.14,0,0,1,280.92,768.76Z"/>
    </g>
    <g id="Leaf1C">
      <path class="cls-1" d="M399.32,519a5.41,5.41,0,0,1-1.37-.17c-27.39-7-56.69-16.13-82.51-25.64-17.2-6.34-37-14.18-53.93-27C243,452.16,230.88,434,227.35,415c-4.19-22.6,5.1-46.2,22.57-57.39,11.33-7.26,26.49-9.89,42.67-7.42,27.83,4.26,51.93,21.59,71.82,38,20.29,16.71,46.77,41.93,67.46,64.26a5.5,5.5,0,0,1-8.07,7.48c-20.38-22-46.44-46.83-66.38-63.25-19.69-16.21-41.37-31.74-66.5-35.58-13.53-2.07-26,0-35.06,5.8-13.81,8.85-21.09,27.81-17.69,46.12,3,16.32,13.67,32.11,30,44.44,15.75,11.93,34.63,19.4,51.09,25.46,25.48,9.4,54.41,18.38,81.45,25.31A5.5,5.5,0,0,1,399.32,519Z"/>
    </g>
    <g id="Leaf1B">
      <path class="cls-1" d="M456.11,433.34a5.49,5.49,0,0,1-3.74-1.47c-22.33-20.69-47.55-47.17-64.26-67.46-16.38-19.89-33.71-44-38-71.82-2.47-16.19.16-31.34,7.42-42.67,11.19-17.47,34.79-26.75,57.39-22.57,19,3.53,37.21,15.66,51.21,34.16,12.83,17,20.67,36.73,27,53.93,9.51,25.82,18.62,55.12,25.64,82.51a5.5,5.5,0,1,1-10.66,2.74c-6.93-27-15.91-56-25.31-81.45-6.06-16.46-13.53-35.34-25.46-51.09-12.33-16.31-28.12-26.95-44.44-30-18.31-3.4-37.27,3.88-46.12,17.69-5.81,9.07-7.87,21.53-5.8,35.06,3.84,25.13,19.37,46.81,35.58,66.5,16.42,19.94,41.25,46,63.25,66.38a5.51,5.51,0,0,1-3.74,9.54Z"/>
    </g>
    <g id="Leaf1A">
      <path class="cls-1" d="M837.08,768.76a77.9,77.9,0,0,1-11.66-.9c-27.84-4.26-51.93-21.59-71.83-38-20.29-16.71-46.77-41.93-67.46-64.26a5.5,5.5,0,0,1,8.07-7.48c20.38,22,46.44,46.83,66.38,63.25,19.69,16.21,41.37,31.74,66.5,35.58,13.54,2.07,26,0,35.06-5.8,13.81-8.85,21.08-27.81,17.69-46.12-3-16.32-13.67-32.11-30-44.44-15.75-11.93-34.63-19.4-51.09-25.46-25.48-9.4-54.41-18.38-81.45-25.31A5.5,5.5,0,0,1,720,599.19c27.39,7,56.7,16.13,82.52,25.64,17.2,6.34,37,14.18,53.93,27,18.5,14,30.63,32.19,34.16,51.21,4.18,22.6-5.1,46.2-22.58,57.39C859.52,765.92,848.79,768.76,837.08,768.76Z"/>
    </g>
  </g>
  <g id="Leaves2">
    <g id="Leaf2D">
      <path class="cls-1" d="M841.27,885.16a40.07,40.07,0,0,1-5-.31c-12.56-1.54-23.29-9-30.83-18.67a27.74,27.74,0,0,1-1.36,3.72A24.75,24.75,0,0,1,776.78,884c-13.1-2.64-22.52-16.43-20.58-30.12l.29-2c1.09-7.55,1.81-12.54.71-23.21a5.5,5.5,0,1,1,10.94-1.13c1.24,12,.36,18.16-.76,25.91l-.29,2c-1.13,8,4.41,16.3,11.87,17.8a13.69,13.69,0,0,0,15.08-7.8c2.67-5.95,1.63-13.56.62-20.92-.15-1.14-.3-2.26-.44-3.36l10.89-1.56c2.44,15.23,15.27,32.25,32.51,34.37,9.57,1.18,19.13-2.37,26.24-9.74l.27-.27c7.44-7.18,11-16.74,9.81-26.31-2.12-17.24-19.14-30.07-34.37-32.51l1.56-10.89,3.36.44c7.36,1,15,2,20.92-.62a13.69,13.69,0,0,0,7.8-15.08c-1.5-7.46-9.81-13-17.8-11.87l-2,.29c-7.75,1.12-13.88,2-25.91.76a5.5,5.5,0,1,1,1.13-10.94c10.67,1.1,15.66.38,23.21-.71l2-.29c13.68-1.94,27.48,7.48,30.12,20.59a24.74,24.74,0,0,1-14.09,27.29,27.74,27.74,0,0,1-3.72,1.36c9.66,7.54,17.13,18.27,18.67,30.83,1.61,13-3.14,26-13,35.51l-.13.13A42.27,42.27,0,0,1,841.27,885.16Z"/>
    </g>
    <g id="Leaf2C">
      <path class="cls-1" d="M260.52,362.06c-12.42,0-24.1-8.9-26.51-20.84a24.76,24.76,0,0,1,14.08-27.3,28.38,28.38,0,0,1,3.73-1.36c-9.66-7.54-17.13-18.27-18.67-30.83-1.61-13,3.14-26,13-35.5l.13-.14a42,42,0,0,1,35.44-12.94c12.56,1.54,23.29,9,30.83,18.67a28.38,28.38,0,0,1,1.36-3.73A24.76,24.76,0,0,1,341.22,234c13.1,2.64,22.52,16.43,20.58,30.12l-.29,2c-1.09,7.55-1.81,12.54-.71,23.22a5.5,5.5,0,0,1-10.94,1.12c-1.24-12-.36-18.16.76-25.91l.29-2c1.13-8-4.41-16.3-11.87-17.8a13.69,13.69,0,0,0-15.08,7.8c-2.67,6-1.63,13.57-.62,20.93.15,1.13.31,2.25.44,3.35l-10.88,1.56c-2.45-15.23-15.28-32.25-32.52-34.37-9.57-1.18-19.13,2.37-26.24,9.74l-.27.27c-7.44,7.18-11,16.74-9.81,26.31,2.12,17.24,19.14,30.07,34.37,32.52l-1.56,10.88c-1.1-.13-2.22-.29-3.35-.44-7.36-1-15-2-20.93.62a13.69,13.69,0,0,0-7.8,15.08c1.5,7.46,9.82,13,17.8,11.87l2-.29c7.75-1.12,13.88-2,25.91-.76a5.5,5.5,0,1,1-1.12,10.94c-10.69-1.1-15.67-.38-23.22.71l-2,.29A25.78,25.78,0,0,1,260.52,362.06Z"/>
    </g>
    <g id="Leaf2B">
      <path class="cls-1" d="M276.74,885.16a42.35,42.35,0,0,1-30.48-13.28l-.17-.17a42,42,0,0,1-12.94-35.44c1.54-12.56,9-23.29,18.67-30.83a27.74,27.74,0,0,1-3.72-1.36A24.75,24.75,0,0,1,234,776.78c2.64-13.1,16.44-22.52,30.12-20.58l2,.29c7.55,1.09,12.54,1.81,23.22.71a5.5,5.5,0,1,1,1.12,10.94c-12,1.24-18.16.36-25.91-.76l-2-.29c-8-1.13-16.3,4.41-17.8,11.87a13.69,13.69,0,0,0,7.8,15.08c6,2.67,13.56,1.63,20.92.62l3.36-.44,1.56,10.89c-15.23,2.44-32.25,15.27-34.37,32.51a31.12,31.12,0,0,0,9.74,26.24l.34.34a31.12,31.12,0,0,0,26.24,9.74c17.24-2.12,30.07-19.14,32.52-34.37l10.88,1.56c-.13,1.1-.29,2.22-.44,3.35-1,7.36-2,15,.62,20.93a13.69,13.69,0,0,0,15.08,7.8c7.46-1.5,13-9.82,11.87-17.79l-.29-2c-1.12-7.75-2-13.88-.76-25.91a5.5,5.5,0,1,1,10.94,1.13c-1.1,10.67-.38,15.66.71,23.21l.29,2c1.95,13.69-7.48,27.48-20.58,30.12a24.74,24.74,0,0,1-27.3-14.09,27.74,27.74,0,0,1-1.36-3.72c-7.54,9.66-18.27,17.13-30.83,18.67A40,40,0,0,1,276.74,885.16Z"/>
    </g>
    <g id="Leaf2A">
      <path class="cls-1" d="M857.48,362.06a25.78,25.78,0,0,1-3.61-.26l-2-.29c-7.55-1.09-12.54-1.81-23.21-.71a5.5,5.5,0,1,1-1.13-10.94c12-1.24,18.16-.36,25.91.76l2,.29c8,1.13,16.3-4.41,17.8-11.87a13.69,13.69,0,0,0-7.8-15.08c-5.95-2.67-13.57-1.63-20.93-.62-1.13.15-2.25.31-3.35.44l-1.56-10.88c15.23-2.45,32.25-15.28,34.37-32.52a31.12,31.12,0,0,0-9.74-26.24l-.28-.28c-7.17-7.43-16.73-11-26.3-9.8-17.24,2.12-30.07,19.14-32.51,34.37l-10.89-1.56c.14-1.1.29-2.22.44-3.36,1-7.36,2.05-15-.62-20.92a13.69,13.69,0,0,0-15.08-7.8c-7.46,1.5-13,9.82-11.87,17.8l.29,2c1.12,7.75,2,13.88.76,25.91a5.5,5.5,0,1,1-10.94-1.12c1.1-10.68.38-15.67-.71-23.22l-.29-2c-1.94-13.69,7.48-27.48,20.58-30.12a24.76,24.76,0,0,1,27.3,14.08,28.38,28.38,0,0,1,1.36,3.73c7.54-9.66,18.27-17.13,30.83-18.67,13-1.61,26,3.14,35.51,13l.09.09c9.85,9.53,14.59,22.46,13,35.48-1.54,12.56-9,23.29-18.67,30.83a27.74,27.74,0,0,1,3.72,1.36A24.75,24.75,0,0,1,884,341.22C881.58,353.16,869.9,362.06,857.48,362.06Z"/>
    </g>
  </g>
  <g id="Laves3">
    <g id="Leaf3d">
      <path class="cls-1" d="M663.55,261.71a5.51,5.51,0,0,1-4-9.28c9.26-9.8,15.1-22,18.36-38.27,2.93-14.63-1.2-29.35-10.52-37.51-7.66-6.71-19-9.28-29.61-6.7a39.38,39.38,0,0,0-13.72,6.48c-4.73,3.45-8.7,8.61-11.63,12.71l-9-6.39C614,168,616.83,145.42,602,130.64c-9.26-9.2-23.67-13.72-42.81-13.44h-.22c-19.22-.28-33.63,4.24-42.89,13.44-14.87,14.78-12,37.4-1.53,52.11l-8.95,6.39c-2.93-4.1-6.9-9.26-11.63-12.71A39.38,39.38,0,0,0,480.21,170c-10.6-2.58-21.95,0-29.61,6.7-9.32,8.16-13.45,22.88-10.52,37.51,3.26,16.31,9.1,28.47,18.36,38.27a5.5,5.5,0,0,1-8,7.56c-10.75-11.37-17.47-25.24-21.16-43.67s1.83-37.24,14.06-47.95c10.31-9,25.44-12.52,39.46-9.11a48.87,48.87,0,0,1,12.62,5.05c-2.26-14.38,1.05-29.74,12.86-41.47,11.44-11.37,28.48-17,50.72-16.64h.06c22.16-.32,39.2,5.27,50.64,16.64,11.81,11.73,15.12,27.09,12.86,41.47a48.87,48.87,0,0,1,12.62-5.05c14-3.41,29.15.08,39.46,9.11,12.23,10.71,17.75,29.53,14.06,47.95S678.3,248.62,667.55,260A5.5,5.5,0,0,1,663.55,261.71Z"/>
    </g>
    <g id="Leaf3c">
      <path class="cls-1" d="M205,689.84c-14.47,0-28.09-5.48-36.59-15.19-9-10.31-12.52-25.43-9.11-39.46a48.87,48.87,0,0,1,5.05-12.62c-14.39,2.26-29.74-1.05-41.47-12.86-11.37-11.44-17-28.5-16.64-50.72v-.06c-.33-22.14,5.27-39.2,16.64-50.64,11.73-11.81,27.09-15.12,41.47-12.86a48.87,48.87,0,0,1-5.05-12.62c-3.41-14,.08-29.15,9.11-39.46,10.71-12.23,29.53-17.75,47.95-14.06s32.3,10.41,43.67,21.16a5.5,5.5,0,0,1-7.56,8c-9.8-9.26-22-15.1-38.27-18.36-14.63-2.93-29.35,1.2-37.51,10.52-6.71,7.66-9.28,19-6.7,29.61a39.38,39.38,0,0,0,6.48,13.72c3.45,4.73,8.61,8.7,12.71,11.63l-6.39,8.95C168,504,145.42,501.17,130.64,516c-9.2,9.26-13.72,23.66-13.44,42.81v.22c-.28,19.23,4.24,33.63,13.44,42.89,14.78,14.87,37.4,12,52.11,1.53l6.39,9c-4.1,2.93-9.26,6.9-12.71,11.63A39.38,39.38,0,0,0,170,637.79c-2.58,10.6,0,22,6.7,29.61,8.16,9.32,22.88,13.45,37.51,10.52,16.31-3.26,28.47-9.1,38.27-18.36a5.5,5.5,0,0,1,7.56,8c-11.37,10.75-25.24,17.47-43.67,21.16A57.88,57.88,0,0,1,205,689.84Z"/>
    </g>
    <g id="Leaf3b">
      <path class="cls-1" d="M557.11,1011.81c-21.26,0-37.7-5.59-48.82-16.65-11.81-11.73-15.12-27.09-12.86-41.47a48.87,48.87,0,0,1-12.62,5c-14,3.41-29.15-.08-39.46-9.11-12.23-10.71-17.75-29.53-14.06-48s10.41-32.3,21.16-43.67a5.5,5.5,0,0,1,8,7.56c-9.26,9.8-15.1,22-18.36,38.27-2.93,14.63,1.2,29.35,10.52,37.51,7.66,6.72,19,9.28,29.61,6.7a39.38,39.38,0,0,0,13.72-6.48c4.72-3.44,8.68-8.58,11.61-12.68l0,0h0l8.95,6.39C504,950,501.17,972.58,516,987.36c9.26,9.2,23.67,13.73,42.81,13.44h.22c19.23.3,33.63-4.24,42.89-13.44,14.87-14.78,12-37.4,1.53-52.11l9-6.39,0,0c2.93,4.1,6.89,9.24,11.61,12.68a39.38,39.38,0,0,0,13.72,6.48c10.61,2.58,22,0,29.61-6.7,9.32-8.16,13.45-22.88,10.52-37.51-3.26-16.31-9.1-28.47-18.36-38.27a5.5,5.5,0,0,1,8-7.56c10.75,11.37,17.47,25.24,21.16,43.67s-1.83,37.24-14.06,48c-10.31,9-25.44,12.52-39.46,9.11a48.87,48.87,0,0,1-12.62-5c2.26,14.38-1.05,29.74-12.86,41.47-11.44,11.37-28.5,17-50.72,16.64h-1.88Z"/>
    </g>
    <g id="Leaf3a">
      <path class="cls-1" d="M913,689.84a57.88,57.88,0,0,1-11.36-1.13C883.25,685,869.38,678.3,858,667.55a5.5,5.5,0,0,1,7.56-8c9.8,9.26,22,15.1,38.27,18.36,14.63,2.93,29.35-1.2,37.51-10.52,6.72-7.66,9.28-19,6.7-29.61a39.38,39.38,0,0,0-6.48-13.72c-3.44-4.72-8.58-8.68-12.68-11.61l0,0h0l6.39-9C950,614,972.58,616.83,987.36,602c9.2-9.26,13.72-23.66,13.44-42.81v-.22c.28-19.23-4.24-33.63-13.44-42.89-14.78-14.87-37.4-12-52.11-1.53l-6.39-8.95,0,0c4.1-2.93,9.24-6.89,12.68-11.61a39.38,39.38,0,0,0,6.48-13.72c2.58-10.6,0-21.95-6.7-29.61-8.16-9.32-22.89-13.45-37.51-10.52-16.31,3.26-28.47,9.1-38.27,18.36a5.5,5.5,0,0,1-7.56-8c11.37-10.75,25.24-17.47,43.67-21.16s37.24,1.83,48,14.06c9,10.31,12.52,25.43,9.11,39.46a48.87,48.87,0,0,1-5,12.62c14.38-2.26,29.74,1.05,41.47,12.86,11.37,11.44,17,28.5,16.64,50.72v.06c.33,22.14-5.27,39.2-16.64,50.64-11.73,11.81-27.09,15.12-41.47,12.86a48.87,48.87,0,0,1,5,12.62c3.41,14-.08,29.14-9.11,39.46C941.13,684.36,927.51,689.84,913,689.84Z"/>
    </g>
  </g>
  <g id="Circle4">
    <path class="cls-1" d="M559,729.61c-94,0-170.54-76.5-170.54-170.54S465,388.53,559,388.53,729.54,465,729.54,559.07,653,729.61,559,729.61Zm0-330.08c-88,0-159.54,71.57-159.54,159.54S471,718.61,559,718.61,718.54,647,718.54,559.07,647,399.53,559,399.53Z"/>
  </g>
  <g id="Circle3">
    <path class="cls-1" d="M559,693.52c-74.18,0-134.52-60.34-134.52-134.52S484.82,424.48,559,424.48,693.52,484.82,693.52,559,633.18,693.52,559,693.52Zm0-258A123.52,123.52,0,1,0,682.52,559,123.66,123.66,0,0,0,559,435.48Z"/>
  </g>
  <g id="Segments">
    <path class="cls-1" d="M559,490.3a5.5,5.5,0,0,1-5.5-5.5V458.4a5.5,5.5,0,0,1,11,0v26.4A5.5,5.5,0,0,1,559,490.3Z"/>
    <path class="cls-1" d="M506.53,512a5.46,5.46,0,0,1-3.89-1.61L484,491.76a5.5,5.5,0,0,1,7.78-7.78l18.66,18.66a5.5,5.5,0,0,1-3.89,9.39Z"/>
    <path class="cls-1" d="M484.8,564.5H458.4a5.5,5.5,0,0,1,0-11h26.4a5.5,5.5,0,0,1,0,11Z"/>
    <path class="cls-1" d="M487.87,635.63a5.5,5.5,0,0,1-3.89-9.39l18.66-18.66a5.5,5.5,0,0,1,7.78,7.78L491.76,634A5.48,5.48,0,0,1,487.87,635.63Z"/>
    <path class="cls-1" d="M559,665.1a5.5,5.5,0,0,1-5.5-5.5V633.2a5.5,5.5,0,0,1,11,0v26.4A5.5,5.5,0,0,1,559,665.1Z"/>
    <path class="cls-1" d="M630.13,635.63a5.48,5.48,0,0,1-3.89-1.61l-18.66-18.66a5.5,5.5,0,0,1,7.78-7.78L634,626.24a5.5,5.5,0,0,1-3.89,9.39Z"/>
    <path class="cls-1" d="M659.6,564.5H633.2a5.5,5.5,0,0,1,0-11h26.4a5.5,5.5,0,0,1,0,11Z"/>
    <path class="cls-1" d="M611.47,512a5.5,5.5,0,0,1-3.89-9.39L626.24,484a5.5,5.5,0,0,1,7.78,7.78l-18.66,18.66A5.46,5.46,0,0,1,611.47,512Z"/>
  </g>
  <g id="Circle2">
    <path class="cls-1" d="M559,665.1A106.1,106.1,0,1,1,665.1,559,106.22,106.22,0,0,1,559,665.1Zm0-201.2A95.1,95.1,0,1,0,654.1,559,95.21,95.21,0,0,0,559,463.9Z"/>
  </g>
  <g id="Circle1">
    <path class="cls-1" d="M559,608.69A49.69,49.69,0,1,1,608.69,559,49.75,49.75,0,0,1,559,608.69Zm0-88.38A38.69,38.69,0,1,0,597.69,559,38.74,38.74,0,0,0,559,520.31Z"/>
  </g>
</svg>
