<svg id="Strokes" xmlns="http://www.w3.org/2000/svg" viewBox="0 0 1117 1117">
  <defs>
    <style>
      .cls-1 {
        fill: #fff;
      }
    </style>
  </defs>
  <path class="cls-1" d="M1023.45,362.94a506.22,506.22,0,1,0,39.66,196.42A503,503,0,0,0,1023.45,362.94ZM558.5,1048C289.08,1048,69.89,828.78,69.89,559.36a485.83,485.83,0,0,1,39.32-192l0,1.3A269.91,269.91,0,0,0,121,451.43a236.33,236.33,0,0,0-2.53,207.19,269.24,269.24,0,0,0-12.28,77.63l0,3.3,2.31,2.37a270.26,270.26,0,0,0,64,48.66A236.37,236.37,0,0,0,319.88,940.15,269.73,269.73,0,0,0,366.23,1004l2.31,2.36,3.31,0c1.19,0,2.38,0,3.58,0A269.71,269.71,0,0,0,449.85,996q7,3.62,14.31,6.78a236.39,236.39,0,0,0,198.61-5.35,269.35,269.35,0,0,0,76.66,12l3.31,0,2.37-2.31a270.26,270.26,0,0,0,49.18-65,236.35,236.35,0,0,0,146.34-145.1,269.7,269.7,0,0,0,66.54-47.72l2.36-2.31,0-3.31A270.07,270.07,0,0,0,998,661.61a236.62,236.62,0,0,0,.74-202.93,269.2,269.2,0,0,0,13.8-79.87,486.09,486.09,0,0,1,34.58,180.55C1047.11,828.78,827.92,1048,558.5,1048ZM673.56,511.7c2.53,6.1,0,14.87-2.68,24.16-2.19,7.63-4.46,15.52-4.46,23.5s2.27,15.87,4.46,23.5c2.68,9.29,5.21,18.06,2.68,24.16-2.7,6.51-10.9,11-19.58,15.73-6.78,3.71-13.79,7.54-19.17,12.92s-9.21,12.39-12.92,19.17c-4.74,8.68-9.22,16.88-15.73,19.58-6.1,2.53-14.87,0-24.16-2.67-7.63-2.2-15.52-4.47-23.5-4.47s-15.87,2.27-23.5,4.47c-9.29,2.67-18.07,5.2-24.16,2.67-6.52-2.7-11-10.9-15.74-19.58-3.7-6.78-7.53-13.79-12.91-19.17S469.8,626.46,463,622.75c-8.68-4.74-16.88-9.22-19.58-15.73-2.53-6.1,0-14.87,2.67-24.16,2.2-7.63,4.47-15.52,4.47-23.5s-2.27-15.87-4.47-23.5c-2.67-9.29-5.2-18.06-2.67-24.16,2.7-6.51,10.9-11,19.58-15.74,6.78-3.7,13.79-7.53,19.17-12.91s9.21-12.39,12.91-19.17c4.74-8.68,9.22-16.88,15.74-19.58a15.41,15.41,0,0,1,5.95-1c5.3,0,11.62,1.82,18.21,3.71,7.63,2.2,15.51,4.47,23.5,4.47s15.87-2.27,23.5-4.47c9.29-2.67,18.06-5.2,24.16-2.67,6.51,2.7,11,10.9,15.73,19.58,3.71,6.78,7.53,13.79,12.92,19.17S647.2,492.26,654,496C662.66,500.71,670.86,505.19,673.56,511.7Zm155.5-222.26a268.25,268.25,0,0,0-18.62-91.85A221,221,0,0,1,920.19,309.34,267.87,267.87,0,0,0,829.06,289.44Zm-15.94,2.93L640.47,464.2c-1.52-2.49-3-5.2-4.54-8-4.28-7.84-9-16.47-16.26-22.27l54.57-129.26a8,8,0,1,0-14.74-6.23L605,427.57c-9-1.25-18.35,1.42-27.42,4-3.41,1-6.72,1.93-9.9,2.65l.58-241.83A251,251,0,0,1,743.34,122h0A251.48,251.48,0,0,1,813.12,292.37ZM561.45,176.88a268.4,268.4,0,0,0-76.8-51.21,220.79,220.79,0,0,1,153.63,1.55A268,268,0,0,0,561.45,176.88Zm-9.2,13.34-.18,77.18-.4,167.33c-3.88-.72-8-1.91-12.24-3.13-8.43-2.43-17.06-4.9-25.49-4.24L461,297.11a8,8,0,1,0-14.83,6l52.68,129.63c-8.14,5.76-13.23,15.05-17.81,23.44-1.2,2.19-2.37,4.34-3.56,6.37L334.81,319.2l-26.39-26.5a251.06,251.06,0,0,1,74-173.66A251.54,251.54,0,0,1,552.25,190.22Zm-259.62,96.3a268.24,268.24,0,0,0-94.58,19.69A221.06,221.06,0,0,1,313,194.14,267.76,267.76,0,0,0,292.63,286.52Zm2.93,15.93L467.14,474.86a112.65,112.65,0,0,1-11.79,7.06c-7.43,4.06-15.55,8.52-21.32,15.13L304.9,442.54a8,8,0,0,0-6.23,14.74l128.27,54.15c-1.77,9.49,1.05,19.31,3.8,28.86.74,2.59,1.48,5.14,2.1,7.6l-237.23-.56a251,251,0,0,1-70.44-175.15A251.55,251.55,0,0,1,295.56,302.45ZM180.07,554.13a268.22,268.22,0,0,0-53.66,82.52A220.85,220.85,0,0,1,128.62,473,267.69,267.69,0,0,0,180.07,554.13Zm13.34,9.19,240.83.58a107.8,107.8,0,0,1-3.5,14.53c-2.37,8.22-4.78,16.63-4.28,24.87L297.33,655.76a8,8,0,1,0,6,14.83l128.21-52.1c5.73,8.43,15.22,13.63,23.78,18.31,2.59,1.41,5.12,2.8,7.46,4.22L295.88,807.15a251,251,0,0,1-173.65-74A251.56,251.56,0,0,1,193.41,563.32ZM289.7,823a268.45,268.45,0,0,0,20.42,96.31A220.71,220.71,0,0,1,193.21,800.77,267.69,267.69,0,0,0,289.7,823ZM305.64,820,474.72,651.74c2.18,3.17,4.23,6.9,6.34,10.77,4.15,7.6,8.72,15.94,15.59,21.72L442.76,811.88A8,8,0,0,0,447,822.37a8.15,8.15,0,0,0,3.11.63,8,8,0,0,0,7.37-4.89L511.15,691a34.05,34.05,0,0,0,5.61.45c7.53,0,15.18-2.2,22.66-4.36,4.05-1.16,8-2.28,11.66-3L550.51,920a251,251,0,0,1-175.09,70.44h-.05A251.53,251.53,0,0,1,305.64,820Zm251.67,115.5a268.41,268.41,0,0,0,83.83,54.19,221.25,221.25,0,0,1-169.43-1A267.65,267.65,0,0,0,557.31,935.51Zm9.2-13.35.57-237.81c3.35.72,6.87,1.73,10.49,2.77,8.71,2.51,17.63,5.07,26.34,4.17L656,819.45a8,8,0,1,0,14.82-6l-52-128c7.74-5.79,12.67-14.79,17.12-22.94a119.49,119.49,0,0,1,6.72-11.31L810.34,819.69a251.07,251.07,0,0,1-74,173.66A251.51,251.51,0,0,1,566.51,922.16Zm259.63-96.29a268.31,268.31,0,0,0,93.6-19.31A220.67,220.67,0,0,1,804.5,921.13,267.74,267.74,0,0,0,826.14,825.87Zm-2.94-15.94L654.75,640.67c2.18-1.29,4.51-2.57,6.9-3.87,8-4.38,16.84-9.22,22.63-16.74L812.1,674a8,8,0,1,0,6.23-14.74l-128-54c1.06-8.86-1.55-18-4.1-26.83a113.89,113.89,0,0,1-3.41-13.94l129.58.31,110.72.26a251,251,0,0,1,70.44,175.15A251.48,251.48,0,0,1,823.2,809.93ZM938.7,558.26a268.49,268.49,0,0,0,51.82-78.2,221.25,221.25,0,0,1-.32,159.43A267.89,267.89,0,0,0,938.7,558.26Zm-13.35-9.19L684,548.49c.65-2.65,1.43-5.39,2.24-8.2,2.57-8.91,5.18-18,4.09-26.95L819.67,460.8a8,8,0,0,0-6-14.83L684.21,498.56c-5.8-7.46-14.59-12.28-22.56-16.64-3.67-2-7.21-3.94-10.28-6L822.88,305.24a250.94,250.94,0,0,1,173.65,74A251.52,251.52,0,0,1,925.35,549.07Zm15.83-230A236.65,236.65,0,0,0,801,176.34a268.87,268.87,0,0,0-44.27-63.55,491.5,491.5,0,0,1,251.51,255.58A269.24,269.24,0,0,0,941.18,319.06ZM740.75,106a269.19,269.19,0,0,0-80.81,13.09,236.45,236.45,0,0,0-197-1.9,269.22,269.22,0,0,0-79.25-14.12A488.75,488.75,0,0,1,740.75,106Zm-370.2,2.34a269.81,269.81,0,0,0-47.75,65A236.69,236.69,0,0,0,176.79,316a269.43,269.43,0,0,0-65.19,47l-.92.9A491.55,491.55,0,0,1,370.55,108.35Zm188,372.35a78.66,78.66,0,1,0,78.65,78.66A78.75,78.75,0,0,0,558.5,480.7Zm62.65,78.66A62.66,62.66,0,1,1,558.5,496.7,62.72,62.72,0,0,1,621.15,559.36Z"/>
</svg>
