<svg xmlns="http://www.w3.org/2000/svg" viewBox="0 0 735.92 235.71">
  <defs>
    <style>
      .cls-1 {
        fill: #094463;
      }

      .cls-2 {
        fill: #878787;
      }

      .cls-3 {
        fill: #f3bd48;
      }

      .cls-4 {
        fill: #c6c6c6;
      }
    </style>
  </defs>
  <g id="Icon">
    <g>
      <g>
        <path class="cls-1" d="M99.63,117.94Q80.08,107,60.81,95.57q-18.5-10.93-37-21.95a7.12,7.12,0,0,0-6.59-.42,5.4,5.4,0,0,0-3.29,5v93A7.43,7.43,0,0,0,17.24,177c12.71,9.06,25.54,18,38.55,26.59,12.22,8,24.57,15.72,37.16,23.11a7.05,7.05,0,0,0,3.33.95,6.69,6.69,0,0,0,3.32-.79,6.12,6.12,0,0,0,3.33-5.43q0-49,0-98A6.34,6.34,0,0,0,99.63,117.94Z"/>
        <path class="cls-1" d="M194.52,73.2a7.12,7.12,0,0,0-6.59.42q-18.48,11-37,21.95-19.31,11.36-38.82,22.37a6.34,6.34,0,0,0-3.31,5.49q0,49,0,98a6.13,6.13,0,0,0,3.32,5.43,6.76,6.76,0,0,0,3.33.79,7,7,0,0,0,3.32-.95c12.6-7.39,25-15.12,37.17-23.11,13-8.63,25.83-17.53,38.55-26.59a7.43,7.43,0,0,0,3.27-5.81v-93A5.4,5.4,0,0,0,194.52,73.2Z"/>
        <path class="cls-1" d="M193.78,56.28c-29.34-13.09-58-27.59-86.58-42.21a2.88,2.88,0,0,0-2.62,0C76,28.7,47.33,43.21,18,56.32a4.65,4.65,0,0,0-2.88,4.17A5.25,5.25,0,0,0,17.84,65c28.37,16.63,56.56,33.57,85.31,49.55a5.64,5.64,0,0,0,5.48,0c28.74-16,56.93-33,85.31-49.6a5.27,5.27,0,0,0,2.72-4.54A4.63,4.63,0,0,0,193.78,56.28Z"/>
      </g>
      <g>
        <path class="cls-2" d="M94.48,175.77c-5.17-3-10.52-6.07-15.89-9.27S67.81,160,62.27,156.58l-.05,41.86a4.28,4.28,0,0,0,2.06,3.5c11,7,21.46,13.38,31.9,19.43a.24.24,0,0,0,.12,0h0s.09,0,.13,0l0-42.31A3.85,3.85,0,0,0,94.48,175.77Z"/>
        <path class="cls-2" d="M52.28,150.45c-5.1-3.21-10.26-6.51-15.78-10.07-5.11-3.29-10.39-6.73-16.15-10.5v40.29a4.66,4.66,0,0,0,2.08,3.58c11.13,7.81,21.48,14.89,31.64,21.64a.33.33,0,0,0,.17.07h0l0-41.57A4.17,4.17,0,0,0,52.28,150.45Z"/>
        <path class="cls-2" d="M52.37,97.88q-7.9-4.71-15.78-9.44l-1.2-.72-15-9v40.41a4.23,4.23,0,0,0,2,3.41c11.76,7.61,22.13,14.24,31.69,20.25a.38.38,0,0,0,.16.06l.11,0,0-41.55A4,4,0,0,0,52.37,97.88Z"/>
        <path class="cls-2" d="M94.5,122.33c-5.08-2.86-10.41-5.91-15.86-9.07-5.21-3-10.55-6.15-16.31-9.56l0,41.91a4.1,4.1,0,0,0,2,3.41c11.18,6.85,21.61,13,31.87,18.91l.12,0h0a.25.25,0,0,0,.13,0l.06-21.18V125.61A3.82,3.82,0,0,0,94.5,122.33Z"/>
      </g>
      <g>
        <path class="cls-3" d="M117.33,175.82a3.81,3.81,0,0,0-2,3.25v42.27h.12a.18.18,0,0,0,.09,0c10.44-6,20.87-12.4,31.9-19.42a4.2,4.2,0,0,0,2-3.44l0-41.77c-5.52,3.43-11,6.75-16.23,9.88S122.52,172.87,117.33,175.82Z"/>
        <path class="cls-3" d="M159.53,150.5a4.15,4.15,0,0,0-2,3.39l0,41.51.12-.06c10.16-6.75,20.51-13.83,31.64-21.64a4.55,4.55,0,0,0,2-3.52V130c-5.73,3.76-11,7.17-16.06,10.44C169.77,144,164.61,147.3,159.53,150.5Z"/>
        <path class="cls-3" d="M175.22,88.49q-7.89,4.74-15.78,9.45a3.89,3.89,0,0,0-2,3.28l0,41.55h0a.31.31,0,0,0,.13-.05c9.59-6,20-12.66,31.69-20.25a4.16,4.16,0,0,0,2-3.35V78.81l-15.46,9.28Z"/>
        <path class="cls-3" d="M117.31,122.39a3.75,3.75,0,0,0-2,3.23v42.27s.08,0,.12,0h0l.09,0c10.26-5.87,20.68-12.05,31.87-18.9a4,4,0,0,0,2-3.35l0-41.83c-5.71,3.39-11,6.52-16.23,9.53C127.71,116.48,122.38,119.53,117.31,122.39Z"/>
      </g>
      <g>
        <path class="cls-2" d="M100.15,105.39a1.11,1.11,0,0,0,.51.14c.33,0,.94-.24.94-.79V24.38c0-.56-.62-.8-1-.8h0a1,1,0,0,0-.48.12C76.33,35.88,50.69,48.76,24.76,60.43a.72.72,0,0,0-.44.63.73.73,0,0,0,.37.68q9.37,5.46,18.73,10.94C62,83.52,81.1,94.73,100.15,105.39Z"/>
        <path class="cls-4" d="M187,60.35C161,48.68,135.39,35.84,111.6,23.7a1.07,1.07,0,0,0-.48-.12h0c-.32,0-.94.24-.94.8v80.35c0,.56.61.79.94.79a1.1,1.1,0,0,0,.52-.14c18.76-10.53,37.64-21.59,55.9-32.29q9.77-5.73,19.54-11.43a.7.7,0,0,0,.37-.67A.72.72,0,0,0,187,60.35Z"/>
      </g>
    </g>
  </g>
  <g id="SJHoney">
    <g>
      <path class="cls-2" d="M220.37,180.74a28.12,28.12,0,0,1,7.1-.83c4,0,7.36,1,9.6,3.13,2.05,2.05,3.14,5.19,3.14,9,0,4-1,6.66-2.63,8.83a12.54,12.54,0,0,1-10.17,4.8c-.84,0-1.48,0-2.18-.06v17.66h-4.86Zm4.86,20.73a15.11,15.11,0,0,0,2,.13c4.8,0,8.07-3.14,8.07-9.28,0-4.41-1.79-8.38-7.3-8.38a10.19,10.19,0,0,0-2.75.32Z"/>
      <path class="cls-2" d="M249.81,180.74a27,27,0,0,1,7-.83c4.28,0,7.48.89,9.72,3.07a11.6,11.6,0,0,1,3,8.44c0,5.51-2.56,9.09-6.91,11.14v.13c3.2,1,4.86,4,5.76,9.66,1,5.89,1.85,9.54,2.49,10.88h-5c-.64-1.28-1.47-5.38-2.3-10.62-1-6-2.82-8.13-7-8.13h-1.92v18.75h-4.86Zm4.86,19.9h2.11c4.67,0,7.81-3.46,7.81-8.64,0-5-2-8.06-7.3-8.13a10.13,10.13,0,0,0-2.62.26Z"/>
      <path class="cls-2" d="M302.48,201.34c0,16.19-5.51,22.4-12.48,22.4-7.17,0-12-7.61-12-22.14,0-14.27,5.18-22,12.67-22S302.48,187.59,302.48,201.34Zm-19.33.32c0,8.9,1.73,17.73,7.23,17.73s7-9.41,7-17.85c0-8.07-1.48-17.6-7-17.6S283.15,192.9,283.15,201.66Z"/>
      <path class="cls-2" d="M312.33,180.74a28.27,28.27,0,0,1,7.11-.83c4,0,7.36,1,9.6,3.13,2,2.05,3.13,5.19,3.13,9,0,4-1,6.66-2.62,8.83a12.57,12.57,0,0,1-10.18,4.8c-.83,0-1.47,0-2.17-.06v17.66h-4.87Zm4.87,20.73a15,15,0,0,0,2,.13c4.8,0,8.06-3.14,8.06-9.28,0-4.41-1.79-8.38-7.29-8.38a10.19,10.19,0,0,0-2.75.32Z"/>
      <path class="cls-2" d="M357.45,202.75H346.64v16.19h12.28v4.29H341.71V180.1h16.45v4.29H346.64v14.2h10.81Z"/>
      <path class="cls-2" d="M368.33,180.74a27.08,27.08,0,0,1,7-.83c4.29,0,7.49.89,9.73,3.07a11.6,11.6,0,0,1,3,8.44c0,5.51-2.56,9.09-6.91,11.14v.13c3.2,1,4.86,4,5.75,9.66,1,5.89,1.86,9.54,2.5,10.88h-5c-.64-1.28-1.47-5.38-2.31-10.62-.95-6-2.81-8.13-7-8.13H373.2v18.75h-4.87Zm4.87,19.9h2.11c4.67,0,7.8-3.46,7.8-8.64,0-5-2-8.06-7.29-8.13a10.13,10.13,0,0,0-2.62.26Z"/>
      <path class="cls-2" d="M402.7,184.51h-7.87V180.1H415.5v4.41h-7.87v38.72H402.7Z"/>
      <path class="cls-2" d="M431.76,223.23V205l-9.54-24.89h5.25l3.84,10.81c1,3,2.24,6.4,3.2,9.73h.12c.84-3.33,2-6.59,3.14-9.92l3.65-10.62h5.12l-9.86,24.7v18.43Z"/>
      <path class="cls-2" d="M467.6,217.53a12.23,12.23,0,0,0,6.14,1.73c4.54,0,7.23-2.94,7.23-7.29,0-4-2.3-6.4-5.7-9-3.45-2.37-8.12-6.4-8.12-12,0-6.53,4.54-11.33,11.39-11.33a11,11,0,0,1,6,1.6l-1.15,4.23a9,9,0,0,0-5.12-1.47,6,6,0,0,0-6.27,6.14c0,4.29,2.24,5.95,6.34,8.89,5.18,3.65,7.48,7.62,7.48,12.42,0,7.42-5.18,12.09-12.09,12.09a14.32,14.32,0,0,1-7.23-1.85Z"/>
      <path class="cls-2" d="M518.22,201.34c0,16.19-5.51,22.4-12.48,22.4-7.17,0-12-7.61-12-22.14,0-14.27,5.18-22,12.67-22S518.22,187.59,518.22,201.34Zm-19.33.32c0,8.9,1.73,17.73,7.23,17.73s7-9.41,7-17.85c0-8.07-1.47-17.6-7-17.6S498.89,192.9,498.89,201.66Z"/>
      <path class="cls-2" d="M528,180.1h4.93v39H545v4.16H528Z"/>
      <path class="cls-2" d="M556.81,180.1V209c0,7.75,2.62,10.37,5.82,10.37,3.65,0,6-2.81,6-10.37V180.1h4.93v28.16c0,11.19-4.61,15.48-11,15.48s-10.69-4.22-10.69-14.91V180.1Z"/>
      <path class="cls-2" d="M590.15,184.51h-7.87V180.1H603v4.41h-7.87v38.72h-4.93Z"/>
      <path class="cls-2" d="M616.59,180.1v43.13h-4.93V180.1Z"/>
      <path class="cls-2" d="M651,201.34c0,16.19-5.5,22.4-12.48,22.4-7.17,0-12-7.61-12-22.14,0-14.27,5.19-22,12.68-22S651,187.59,651,201.34Zm-19.33.32c0,8.9,1.73,17.73,7.24,17.73s7-9.41,7-17.85c0-8.07-1.47-17.6-7-17.6S631.62,192.9,631.62,201.66Z"/>
      <path class="cls-2" d="M660.81,223.23V180.1h4.61l7.93,20.22c1.79,4.67,4,10.37,5.51,15H679c-.38-6.78-.57-12.35-.57-19.84V180.1h4.41v43.13h-4.6L670,202.5a139.87,139.87,0,0,1-5.18-14.66h-.13c.39,5.76.51,11.26.51,20.48v14.91Z"/>
      <path class="cls-2" d="M693.45,217.53a12.26,12.26,0,0,0,6.14,1.73c4.55,0,7.23-2.94,7.23-7.29,0-4-2.3-6.4-5.69-9-3.46-2.37-8.13-6.4-8.13-12,0-6.53,4.54-11.33,11.39-11.33a11.05,11.05,0,0,1,6,1.6l-1.15,4.23a9,9,0,0,0-5.12-1.47,6,6,0,0,0-6.28,6.14c0,4.29,2.24,5.95,6.34,8.89,5.18,3.65,7.49,7.62,7.49,12.42,0,7.42-5.19,12.09-12.1,12.09a14.36,14.36,0,0,1-7.23-1.85Z"/>
    </g>
  </g>
  <g id="SJHoney-2" data-name="SJHoney">
    <g>
      <path class="cls-1" d="M221.47,116.32l21-8.47c2.09,4.82,4.37,8.43,6.87,10.82s6,3.58,10.44,3.58a11.4,11.4,0,0,0,7.4-2.45,7.45,7.45,0,0,0,3-6q0-6.65-4-9t-16.32-7.39q-12.28-5-18.25-11.75t-5.95-19.8a24.6,24.6,0,0,1,4.47-14,32.45,32.45,0,0,1,12-10.55,33.85,33.85,0,0,1,16-3.94,39.55,39.55,0,0,1,15.14,2.87,34,34,0,0,1,11.83,7.92,30.84,30.84,0,0,1,7,11.31L272,67.93q-5-11.13-13.83-11.12A9.2,9.2,0,0,0,252,59a7.75,7.75,0,0,0-2.57,6.25q0,4.55,8,8.28T274,80.88a44.77,44.77,0,0,1,14.66,9.87q6.15,6.24,6.15,17a32.16,32.16,0,0,1-5,17.73,33.32,33.32,0,0,1-13.39,12,40,40,0,0,1-18.29,4.24,41.31,41.31,0,0,1-15.75-2.95,35.45,35.45,0,0,1-12.64-8.67A39.27,39.27,0,0,1,221.47,116.32Z"/>
      <path class="cls-1" d="M340.93,39.36v80.06q0,12.17-7.42,17.22T313,141.7a87.27,87.27,0,0,1-12.7-1.1v-19a22.12,22.12,0,0,0,5.21.69q4.51,0,6.69-1.52a6.65,6.65,0,0,0,2.76-4.2,36.41,36.41,0,0,0,.59-7.4V39.36Z"/>
      <path class="cls-1" d="M358.56,139.74V39.36h25.37V78.25h19.9V39.36H429.2V139.74H403.83V98.56h-19.9v41.18Z"/>
      <path class="cls-1" d="M442.46,104.07A48,48,0,0,1,446.05,85a28.69,28.69,0,0,1,10.79-13q7.19-4.69,17.48-4.69T491.83,72A28.59,28.59,0,0,1,502.6,85a48.18,48.18,0,0,1,3.58,19.09,50.86,50.86,0,0,1-3.5,19.57A27.85,27.85,0,0,1,492,136.76q-7.16,4.67-17.72,4.66t-17.72-4.66A27.93,27.93,0,0,1,446,123.64,50.87,50.87,0,0,1,442.46,104.07Zm23.68,0a86.59,86.59,0,0,0,.86,13.84q.87,5,2.62,7.06a6.39,6.39,0,0,0,9.38,0q1.77-2.07,2.63-7a85.28,85.28,0,0,0,.86-13.83q0-12.63-1.7-17.53c-1.14-3.26-3.3-4.9-6.49-4.9s-5.32,1.64-6.45,4.9S466.14,95.67,466.14,104.09Z"/>
      <path class="cls-1" d="M519,139.74V69h22.86v9.43h.27q7.41-11.11,20.17-11.12,6.88,0,11,4.34t4.1,11.6v56.53H554.51V89.68q0-6.33-5.47-6.33a7.19,7.19,0,0,0-5.92,3L541.85,88v51.74Z"/>
      <path class="cls-1" d="M651.25,109.41H613q0,16.8,10.29,16.8a11.05,11.05,0,0,0,7.32-2.71,12.79,12.79,0,0,0,4.25-7l15.35,5.65a27.57,27.57,0,0,1-3.85,7.35,29.27,29.27,0,0,1-9.18,8.21q-6.13,3.75-15.3,3.75A31.37,31.37,0,0,1,608,138.48a27.67,27.67,0,0,1-10-8.18,36.1,36.1,0,0,1-5.9-11.89,51,51,0,0,1-1.93-14.2,50.17,50.17,0,0,1,2-14.3,34.88,34.88,0,0,1,6-11.79,27.84,27.84,0,0,1,9.94-8,30.73,30.73,0,0,1,13.58-2.88q10.35,0,17,5.27a29.44,29.44,0,0,1,9.62,13.72,55.23,55.23,0,0,1,3,18.36ZM613,95.88h17.07a29.18,29.18,0,0,0-1.73-10.42q-1.61-3.79-6.87-3.8A6.72,6.72,0,0,0,615,85.83,23.15,23.15,0,0,0,613,95.88Z"/>
      <path class="cls-1" d="M656.87,69h23.54l8.33,41H689l9.74-41h17.9L692.84,142a28.41,28.41,0,0,1-6.4,11.2,22.9,22.9,0,0,1-9.62,5.92,42.57,42.57,0,0,1-12.76,1.74,59.53,59.53,0,0,1-6.74-.55V144.11a29.39,29.39,0,0,0,6,.69q12.81,0,12.81-8.44a21.87,21.87,0,0,0-1-6.37Z"/>
    </g>
  </g>
</svg>
