<svg xmlns="http://www.w3.org/2000/svg" viewBox="0 0 702.69 213.88">
  <defs>
    <style>
      .cls-1 {
        fill: #094463;
      }

      .cls-2 {
        fill: #878787;
      }

      .cls-3 {
        fill: #f3bd48;
      }

      .cls-4 {
        fill: #c6c6c6;
      }
    </style>
  </defs>
  <g id="Icon" class="opacity_0 fadein-with-delay-1">
    <g>
      <g>
        <path class="cls-1 " d="M85.66,104.18c-13-7.3-25.95-14.79-38.82-22.36-12.33-7.29-24.64-14.64-37-21.95a7.12,7.12,0,0,0-6.59-.42,5.39,5.39,0,0,0-3.29,5v93a7.44,7.44,0,0,0,3.27,5.81q19.07,13.59,38.55,26.59,18.33,12,37.17,23.1a6.88,6.88,0,0,0,3.32,1,6.66,6.66,0,0,0,3.33-.8A6.11,6.11,0,0,0,89,207.66q0-49,0-98A6.33,6.33,0,0,0,85.66,104.18Z"/>
        <path class="cls-1" d="M180.55,59.45a7.12,7.12,0,0,0-6.59.42c-12.32,7.31-24.63,14.66-37,21.95-12.87,7.57-25.79,15.06-38.82,22.36a6.35,6.35,0,0,0-3.31,5.49q0,49,0,98a6.1,6.1,0,0,0,3.33,5.42,6.6,6.6,0,0,0,3.32.8,7,7,0,0,0,3.33-1c12.59-7.39,24.94-15.11,37.16-23.1q19.51-13,38.55-26.59a7.44,7.44,0,0,0,3.27-5.81v-93A5.39,5.39,0,0,0,180.55,59.45Z"/>
        <path class="cls-1" d="M179.81,42.52c-29.34-13.08-58-27.58-86.58-42.21a2.94,2.94,0,0,0-2.62,0C62,14.94,33.36,29.46,4,42.57a4.64,4.64,0,0,0-2.88,4.16,5.26,5.26,0,0,0,2.72,4.54C32.25,67.9,60.44,84.84,89.18,100.82a5.66,5.66,0,0,0,5.49,0c28.73-16,56.92-33,85.3-49.6a5.27,5.27,0,0,0,2.72-4.54A4.64,4.64,0,0,0,179.81,42.52Z"/>
      </g>
      <g>
        <path class="cls-2" d="M80.51,162C75.34,159.07,70,156,64.62,152.75s-10.78-6.49-16.32-9.92l0,41.86a4.26,4.26,0,0,0,2.05,3.5c11,7,21.46,13.37,31.9,19.43a.38.38,0,0,0,.13,0h0l.13,0,0-42.31A3.86,3.86,0,0,0,80.51,162Z"/>
        <path class="cls-2" d="M38.31,136.7c-5.1-3.22-10.26-6.51-15.78-10.07-5.11-3.3-10.39-6.73-16.15-10.5v40.29A4.68,4.68,0,0,0,8.45,160c11.13,7.81,21.48,14.89,31.64,21.64a.44.44,0,0,0,.17.07h0l.05-41.57A4.15,4.15,0,0,0,38.31,136.7Z"/>
        <path class="cls-2" d="M38.4,84.13q-7.9-4.71-15.78-9.44L21.43,74l-15-9v40.41a4.23,4.23,0,0,0,2,3.41C20.19,116.39,30.56,123,40.12,129a.46.46,0,0,0,.16.07l.11,0,0-41.55A4,4,0,0,0,38.4,84.13Z"/>
        <path class="cls-2" d="M80.53,108.58c-5.08-2.86-10.41-5.92-15.85-9.07-5.22-3-10.56-6.16-16.32-9.56l0,41.91a4.07,4.07,0,0,0,2,3.41c11.18,6.84,21.61,13,31.87,18.9a.24.24,0,0,0,.12,0h0a.24.24,0,0,0,.12,0L82.53,133V111.86A3.81,3.81,0,0,0,80.53,108.58Z"/>
      </g>
      <g>
        <path class="cls-3" d="M103.36,162.07a3.81,3.81,0,0,0-2,3.25l0,42.27h.11a.15.15,0,0,0,.09,0c10.44-6.05,20.87-12.4,31.9-19.43a4.17,4.17,0,0,0,2-3.44l0-41.76c-5.51,3.42-11,6.75-16.23,9.88S108.55,159.12,103.36,162.07Z"/>
        <path class="cls-3" d="M145.56,136.75a4.12,4.12,0,0,0-2,3.39l0,41.51.12-.06c10.16-6.75,20.51-13.83,31.64-21.64a4.56,4.56,0,0,0,2-3.52V116.24c-5.73,3.75-11,7.17-16.06,10.44C155.81,130.25,150.64,133.55,145.56,136.75Z"/>
        <path class="cls-3" d="M161.25,74.74q-7.87,4.74-15.78,9.45a3.92,3.92,0,0,0-2,3.28l0,41.55h0a.36.36,0,0,0,.13-.06c9.59-6,20-12.65,31.69-20.24a4.16,4.16,0,0,0,2-3.35V65.06l-15.46,9.28Z"/>
        <path class="cls-3" d="M103.34,108.64a3.74,3.74,0,0,0-2,3.22v42.27s.08,0,.12,0h0l.09,0c10.26-5.87,20.68-12.05,31.87-18.9a4,4,0,0,0,2-3.36l0-41.82c-5.7,3.39-11,6.51-16.22,9.53C113.74,102.73,108.41,105.78,103.34,108.64Z"/>
      </g>
      <g>
        <path class="cls-2" d="M86.18,91.64a1,1,0,0,0,.51.13c.33,0,.94-.23.94-.79V10.63c0-.56-.62-.8-1-.8h0a1.07,1.07,0,0,0-.48.12C62.36,22.13,36.72,35,10.79,46.68a.74.74,0,0,0-.44.63.73.73,0,0,0,.37.67q9.37,5.46,18.74,11C48,69.77,67.13,81,86.18,91.64Z"/>
        <path class="cls-4" d="M173,46.6C147,34.93,121.42,22.09,97.63,10a1.07,1.07,0,0,0-.48-.12h0c-.33,0-1,.24-1,.8V91c0,.56.61.79.94.79a1.1,1.1,0,0,0,.52-.14C116.43,81.1,135.31,70,153.57,59.34q9.78-5.73,19.55-11.43A.74.74,0,0,0,173,46.6Z"/>
      </g>
    </g>
  </g>
  <g id="SJHoney" class="opacity_0 fadein-with-delay-3">
    <g>
      <path class="cls-2" d="M206.4,167a28.18,28.18,0,0,1,7.1-.83c4,0,7.36,1,9.6,3.14,2.05,2.05,3.14,5.18,3.14,9,0,4-1,6.65-2.63,8.83a12.54,12.54,0,0,1-10.17,4.8,21.46,21.46,0,0,1-2.18-.07v17.67H206.4Zm4.86,20.74a17.11,17.11,0,0,0,2,.13c4.79,0,8.06-3.14,8.06-9.28,0-4.42-1.79-8.39-7.3-8.39a10.19,10.19,0,0,0-2.75.32Z"/>
      <path class="cls-2" d="M235.84,167a27.41,27.41,0,0,1,7-.83c4.28,0,7.48.9,9.72,3.07a11.6,11.6,0,0,1,3,8.45c0,5.51-2.56,9.09-6.91,11.14v.13c3.2.95,4.86,4,5.76,9.66,1,5.89,1.86,9.53,2.5,10.88h-5c-.64-1.28-1.47-5.38-2.3-10.63-1-5.95-2.82-8.12-7-8.12H240.7v18.75h-4.86Zm4.86,19.91h2.11c4.67,0,7.81-3.46,7.81-8.64,0-5-2.05-8.07-7.3-8.13a9.71,9.71,0,0,0-2.62.26Z"/>
      <path class="cls-2" d="M288.51,187.59c0,16.19-5.51,22.4-12.48,22.4-7.17,0-12-7.62-12-22.14,0-14.27,5.18-22,12.67-22S288.51,173.83,288.51,187.59Zm-19.33.32c0,8.9,1.73,17.73,7.23,17.73s7-9.41,7-17.86c0-8.06-1.47-17.6-7-17.6S269.18,179.14,269.18,187.91Z"/>
      <path class="cls-2" d="M298.36,167a28.27,28.27,0,0,1,7.11-.83c4,0,7.36,1,9.6,3.14,2.05,2.05,3.13,5.18,3.13,9,0,4-1,6.65-2.62,8.83a12.56,12.56,0,0,1-10.18,4.8,21.16,21.16,0,0,1-2.17-.07v17.67h-4.87Zm4.87,20.74a16.92,16.92,0,0,0,2,.13c4.8,0,8.07-3.14,8.07-9.28,0-4.42-1.8-8.39-7.3-8.39a10.19,10.19,0,0,0-2.75.32Z"/>
      <path class="cls-2" d="M343.48,189H332.67v16.19H345v4.29H327.74V166.35h16.45v4.28H332.67v14.21h10.81Z"/>
      <path class="cls-2" d="M354.36,167a27.52,27.52,0,0,1,7-.83c4.29,0,7.49.9,9.73,3.07a11.64,11.64,0,0,1,3,8.45c0,5.51-2.56,9.09-6.91,11.14v.13c3.2.95,4.86,4,5.76,9.66,1,5.89,1.85,9.53,2.49,10.88h-5c-.64-1.28-1.47-5.38-2.3-10.63-1-5.95-2.82-8.12-7-8.12h-1.92v18.75h-4.87Zm4.87,19.91h2.11c4.67,0,7.81-3.46,7.81-8.64,0-5-2-8.07-7.3-8.13a9.71,9.71,0,0,0-2.62.26Z"/>
      <path class="cls-2" d="M388.73,170.76h-7.87v-4.41h20.67v4.41h-7.87v38.72h-4.93Z"/>
      <path class="cls-2" d="M417.79,209.48V191.24l-9.54-24.89h5.25l3.84,10.81c1,3,2.24,6.4,3.2,9.73h.13c.83-3.33,2-6.59,3.13-9.92l3.65-10.62h5.12l-9.86,24.7v18.43Z"/>
      <path class="cls-2" d="M453.63,203.78a12.33,12.33,0,0,0,6.14,1.73c4.54,0,7.23-2.94,7.23-7.29,0-4-2.3-6.41-5.69-9-3.46-2.37-8.13-6.4-8.13-12,0-6.53,4.54-11.33,11.39-11.33a11,11,0,0,1,6,1.6l-1.16,4.22a9.06,9.06,0,0,0-5.12-1.47,6,6,0,0,0-6.27,6.15c0,4.28,2.24,5.95,6.34,8.89,5.18,3.65,7.49,7.62,7.49,12.42,0,7.42-5.19,12.09-12.1,12.09a14.32,14.32,0,0,1-7.23-1.85Z"/>
      <path class="cls-2" d="M504.25,187.59c0,16.19-5.51,22.4-12.48,22.4-7.17,0-12-7.62-12-22.14,0-14.27,5.19-22,12.67-22S504.25,173.83,504.25,187.59Zm-19.33.32c0,8.9,1.73,17.73,7.23,17.73s7-9.41,7-17.86c0-8.06-1.47-17.6-7-17.6S484.92,179.14,484.92,187.91Z"/>
      <path class="cls-2" d="M514,166.35H519v39h12.09v4.16H514Z"/>
      <path class="cls-2" d="M542.84,166.35v28.92c0,7.74,2.63,10.37,5.83,10.37,3.64,0,6-2.82,6-10.37V166.35h4.93V194.5c0,11.2-4.61,15.49-11,15.49s-10.69-4.22-10.69-14.91V166.35Z"/>
      <path class="cls-2" d="M576.19,170.76h-7.88v-4.41H589v4.41h-7.87v38.72h-4.92Z"/>
      <path class="cls-2" d="M602.62,166.35v43.13h-4.93V166.35Z"/>
      <path class="cls-2" d="M637,187.59c0,16.19-5.5,22.4-12.48,22.4-7.16,0-12-7.62-12-22.14,0-14.27,5.18-22,12.67-22S637,173.83,637,187.59Zm-19.33.32c0,8.9,1.73,17.73,7.24,17.73s7-9.41,7-17.86c0-8.06-1.47-17.6-7-17.6S617.65,179.14,617.65,187.91Z"/>
      <path class="cls-2" d="M646.84,209.48V166.35h4.61l7.93,20.22c1.79,4.67,4,10.36,5.51,15H665c-.38-6.79-.57-12.35-.57-19.84V166.35h4.41v43.13h-4.6l-8.19-20.74a137.34,137.34,0,0,1-5.19-14.65h-.13c.39,5.76.52,11.26.52,20.48v14.91Z"/>
      <path class="cls-2" d="M679.48,203.78a12.36,12.36,0,0,0,6.14,1.73c4.55,0,7.24-2.94,7.24-7.29,0-4-2.31-6.41-5.7-9-3.46-2.37-8.13-6.4-8.13-12,0-6.53,4.55-11.33,11.39-11.33a11,11,0,0,1,6,1.6l-1.15,4.22a9.09,9.09,0,0,0-5.12-1.47,6,6,0,0,0-6.27,6.15c0,4.28,2.24,5.95,6.33,8.89,5.18,3.65,7.49,7.62,7.49,12.42,0,7.42-5.19,12.09-12.1,12.09a14.36,14.36,0,0,1-7.23-1.85Z"/>
    </g>
  </g>
  <g id="SJHoney-2" data-name="SJHoney" class="opacity_0 fadein-with-delay-2">
    <g>
      <path class="cls-1" d="M207.51,102.57l21-8.47q3.14,7.23,6.87,10.81t10.44,3.59a11.38,11.38,0,0,0,7.4-2.45,7.47,7.47,0,0,0,3-6q0-6.65-4-9a161,161,0,0,0-16.32-7.38q-12.28-5-18.24-11.76t-6-19.79a24.6,24.6,0,0,1,4.47-14,32.36,32.36,0,0,1,12-10.55,33.88,33.88,0,0,1,16-3.94,39.32,39.32,0,0,1,15.14,2.87,34,34,0,0,1,11.83,7.92,30.84,30.84,0,0,1,7,11.31L258,54.17q-5-11.12-13.84-11.11A9.19,9.19,0,0,0,238,45.24a7.77,7.77,0,0,0-2.57,6.25q0,4.55,8,8.29T260,67.13A44.9,44.9,0,0,1,274.68,77q6.15,6.26,6.15,17a32.2,32.2,0,0,1-5,17.74,33.32,33.32,0,0,1-13.39,12,40.16,40.16,0,0,1-18.29,4.23A41.49,41.49,0,0,1,228.42,125a35.54,35.54,0,0,1-12.64-8.67A39.2,39.2,0,0,1,207.51,102.57Z"/>
      <path class="cls-1" d="M327,25.6v80.07q0,12.15-7.42,17.21T299,127.94a85.89,85.89,0,0,1-12.7-1.1v-19a22.12,22.12,0,0,0,5.21.69q4.53,0,6.7-1.52a6.68,6.68,0,0,0,2.75-4.2,35.76,35.76,0,0,0,.59-7.4V25.6Z"/>
      <path class="cls-1" d="M344.59,126V25.6H370V64.5h19.9V25.6h25.37V126H389.86V84.81H370V126Z"/>
      <path class="cls-1" d="M428.49,90.32a47.83,47.83,0,0,1,3.6-19.09,28.63,28.63,0,0,1,10.78-13q7.19-4.68,17.48-4.68t17.51,4.68a28.61,28.61,0,0,1,10.77,13,48,48,0,0,1,3.58,19.09,51.09,51.09,0,0,1-3.49,19.57A28,28,0,0,1,478.07,123q-7.15,4.65-17.72,4.66T442.63,123A28,28,0,0,1,432,109.89,50.9,50.9,0,0,1,428.49,90.32Zm23.68,0a86.59,86.59,0,0,0,.86,13.84q.87,5,2.62,7a5.84,5.84,0,0,0,4.68,2,5.9,5.9,0,0,0,4.7-2.06q1.77-2.07,2.63-7.06a85.06,85.06,0,0,0,.86-13.82q0-12.63-1.7-17.53t-6.49-4.9c-3.16,0-5.32,1.63-6.45,4.9S452.17,81.92,452.17,90.34Z"/>
      <path class="cls-1" d="M505,126V55.21h22.86v9.43h.27q7.41-11.12,20.17-11.12,6.88,0,11,4.34t4.09,11.6V126H540.54v-50q0-6.33-5.47-6.33a7.16,7.16,0,0,0-5.92,3l-1.27,1.68V126Z"/>
      <path class="cls-1" d="M637.28,95.66H599.07q0,16.78,10.29,16.79a11.07,11.07,0,0,0,7.32-2.7,12.83,12.83,0,0,0,4.25-7l15.35,5.65a27.57,27.57,0,0,1-3.85,7.35,29.27,29.27,0,0,1-9.18,8.21q-6.13,3.75-15.3,3.75a31.3,31.3,0,0,1-13.9-2.94,27.6,27.6,0,0,1-10-8.18,36.12,36.12,0,0,1-5.91-11.89,51.07,51.07,0,0,1-1.93-14.2,50.29,50.29,0,0,1,2-14.31,34.91,34.91,0,0,1,6-11.79,27.94,27.94,0,0,1,9.93-8,30.86,30.86,0,0,1,13.58-2.87q10.37,0,17,5.27a29.44,29.44,0,0,1,9.62,13.72,55.23,55.23,0,0,1,3,18.36ZM599.07,82.13h17.08a29.44,29.44,0,0,0-1.74-10.43q-1.6-3.8-6.87-3.79a6.72,6.72,0,0,0-6.47,4.17A23.12,23.12,0,0,0,599.07,82.13Z"/>
      <path class="cls-1" d="M642.9,55.21h23.54l8.33,41h.28l9.74-41h17.9l-23.82,73a28.38,28.38,0,0,1-6.4,11.21,22.9,22.9,0,0,1-9.62,5.92,42.57,42.57,0,0,1-12.76,1.74,62,62,0,0,1-6.74-.55V130.35a29.47,29.47,0,0,0,6,.69q12.81,0,12.81-8.43a21.82,21.82,0,0,0-1-6.37Z"/>
    </g>
  </g>
</svg>
